<?xml version="1.0" encoding="utf-8"?>
<svg width="152px" height="152px" viewBox="0 0 152 152" version="1.1" xmlns:xlink="http://www.w3.org/1999/xlink" xmlns="http://www.w3.org/2000/svg">
  <defs>
    <path d="M152 0L152 0L152 152L0 152L0 0L152 0Z" id="path_1" />
    <clipPath id="clip_1">
      <use xlink:href="#path_1" />
    </clipPath>
  </defs>
  <g id="dopomoha-logo-text-en" clip-path="url(#clip_1)">
    <path d="M152 0L152 0L152 152L0 152L0 0L152 0Z" id="dopomoha-logo-text-en" fill="none" stroke="none" />
    <g id="Group" transform="translate(0.0026855469 0)">
      <g id="Dopomoha.Kharkiv-logo-full-EN">
        <path d="M0 0L152 0L152 151.999L0 151.999L0 0Z" id="Rectangle" fill="none" fill-rule="evenodd" stroke="none" />
        <path d="M40.1196 142.084C40.1846 142.084 40.2496 142.112 40.297 142.157C40.3421 142.204 40.3695 142.269 40.3695 142.334C40.3695 142.714 40.3695 143.497 40.3695 144.439C40.3695 148.064 43.3096 151.004 46.9346 151.004C48.0771 151.004 49.2647 151.004 50.4071 151.004C54.0321 151.004 56.972 148.064 56.972 144.439C56.972 144.437 56.972 144.437 56.972 144.434C56.972 143.137 58.0222 142.084 59.3221 142.084C61.1922 142.084 63.4996 142.084 63.4996 142.084C64.7196 142.084 65.8872 141.599 66.7496 140.739C67.6122 139.877 68.0971 138.707 68.0971 137.487L68.0971 137.487C68.0971 134.947 70.1546 132.887 72.6946 132.887C77.7497 132.887 85.1621 132.887 85.1621 132.887C88.3646 132.887 90.9597 130.292 90.9597 127.089L90.9597 104.432C90.9597 101.232 88.3622 98.6345 85.1621 98.6345C81.9622 98.6345 79.3647 101.232 79.3647 104.432L79.3647 116.292C79.3647 119.054 77.1271 121.292 74.3647 121.292C62.8221 121.292 34.432 121.292 22.932 121.292C20.3769 121.292 18.232 119.367 17.9595 116.827C17.9744 111.829 17.9744 104.432 17.9744 104.432C17.9744 101.232 15.3769 98.6345 12.177 98.6345C8.97692 98.6345 6.37941 101.232 6.37941 104.432L6.37941 127.089C6.37941 130.292 8.97692 132.887 12.177 132.887L24.6445 132.887C27.1845 132.887 29.2446 134.947 29.2446 137.487C29.2446 137.487 29.2446 137.487 29.2446 137.487C29.2446 140.027 31.3021 142.084 33.8421 142.084L40.1196 142.084L40.1196 142.084ZM48.6696 44.4746C37.6521 33.6171 21.1895 34.9771 12.3545 42.5271C2.51191 50.942 1.2645 67.7394 11.077 84.5695C15.4946 92.6069 24.6746 100.744 34.4171 107.459C39.6345 111.054 44.1896 112.652 48.6696 112.652C53.1496 112.652 57.7046 111.054 62.9221 107.459C72.6671 100.744 81.8497 92.6019 86.2672 84.5595C96.0748 67.7394 94.8272 50.942 84.9847 42.5271C76.1496 34.9771 59.687 33.6171 48.6696 44.4746L48.6696 44.4746ZM43.6645 56.8171C44.7046 58.5946 46.6096 59.6871 48.6696 59.6871C50.7297 59.6871 52.6346 58.5946 53.6746 56.8171C59.6396 46.6195 71.4847 46.242 77.4497 51.3421C77.4497 51.3421 77.4497 51.3421 77.4497 51.3421C80.2846 53.7646 81.5221 57.4746 81.5221 61.7145C81.5221 66.9196 79.6921 72.8369 76.2122 78.7845C76.1847 78.8345 76.1547 78.8844 76.1272 78.9345C72.4446 85.6795 64.5171 92.2795 56.3446 97.9119C53.4921 99.877 51.1197 101.057 48.6696 101.057C46.2196 101.057 43.8496 99.877 40.9971 97.9119C32.822 92.2795 24.8945 85.6795 21.2121 78.9345C21.1846 78.8844 21.157 78.8345 21.1271 78.7845C17.6496 72.8369 15.817 66.9196 15.817 61.7145C15.817 57.4746 17.0545 53.7646 19.8896 51.3421C25.8546 46.242 37.6995 46.6195 43.6645 56.8171L43.6645 56.8171ZM67.9447 69.9021C62.1646 66.937 55.6122 65.262 48.6696 65.262L48.6696 65.262C41.912 65.262 35.3245 66.8795 29.417 69.8995C26.5696 71.3545 25.4371 74.852 26.8946 77.6994C28.352 80.5495 31.847 81.6795 34.6971 80.222C38.982 78.0319 43.7646 76.857 48.6696 76.857L48.6696 76.857C53.7071 76.857 58.4596 78.0695 62.6546 80.2194C65.5022 81.6795 68.9997 80.5545 70.4596 77.7071C71.9196 74.8595 70.7921 71.362 67.9447 69.9021L67.9447 69.9021ZM48.6696 1.00721L48.6696 1.00469C50.312 1.00469 51.887 1.65716 53.0496 2.8172C54.2096 3.97969 54.862 5.5547 54.862 7.19715L54.862 7.20219C54.8646 8.60965 55.7497 9.86468 57.0746 10.3397C60.2771 11.5146 63.2121 13.3847 65.6722 15.8446C68.2546 18.4271 70.1897 21.5346 71.3697 24.9196C72.4246 27.9396 70.8296 31.2497 67.8072 32.3047C64.7872 33.3596 61.4771 31.7621 60.4247 28.7421C59.8122 26.9896 58.8097 25.3796 57.4721 24.0422C55.1396 21.7096 51.972 20.3972 48.6722 20.3972L48.6696 20.3972C45.3671 20.3972 42.2021 21.7096 39.867 24.0422C38.5296 25.3796 37.5295 26.9896 36.9171 28.7421C35.8621 31.7621 32.5521 33.3596 29.5321 32.3047C26.5121 31.2497 24.9145 27.9396 25.9695 24.9196C27.152 21.5346 29.087 18.4271 31.6671 15.8446C34.127 13.3847 37.0646 11.5146 40.2671 10.3397C41.5921 9.86468 42.4771 8.60965 42.4771 7.20219L42.4771 7.19715C42.4771 5.5547 43.1295 3.97969 44.2921 2.8172C45.4521 1.65716 47.0271 1.00469 48.6696 1.00469L48.6696 1.00721L48.6696 1.00721Z" id="Group" fill="#FFFFFF" fill-rule="evenodd" stroke="none" />
      </g>
    </g>
  </g>
</svg>