<svg viewBox="0 0 128 128" fill="none" xmlns="http://www.w3.org/2000/svg">
  <path
    d="M14 43.2891L43.2891 14L84.7109 14L114 43.2891L114 84.7106L84.7104 114L43.2896 114L14 84.7103L14 43.2891L14 43.2891L14 43.2891Z"
    id="octagon"
  />
  <path
    d="M44.0679 45.0681L28.3179 60.8181L28.3179 67.1821L44.0679 82.9321L50.4318 76.5681L37.8638 64.0001L50.4318 51.4321L44.0679 45.0681L44.0679 45.0681Z"
    class="line"
  />
  <path
    d="M99.6818 60.8181L83.9318 45.0681L77.5679 51.4321L90.1359 64.0001L77.5679 76.5681L83.9318 82.9321L99.6818 67.1821L99.6818 60.8181L99.6818 60.8181Z"
    class="line"
  />
  <path
    d="M61.5914 89.934L75.0914 40.434L66.4086 38.066L52.9086 87.566L61.5914 89.934L61.5914 89.934Z"
    class="line"
  />
  <style>
    #octagon { fill: #2F2F2F; }
    .line { fill: #F1F1F1; }
    @media (prefers-color-scheme: dark) {
      #octagon { fill: #F1F1F1; }
      .line { fill: #2F2F2F;}
    }
  </style>
</svg>
